<svg xmlns="http://www.w3.org/2000/svg" width="24.646" height="21.327" viewBox="0 0 24.646 21.327">
  <g fill="none" stroke="#FFF" stroke-linecap="round" stroke-linejoin="round" stroke-miterlimit="10">
    <path d="M10.544.555L8.687 7.028H2.238c-.557 0-1.04.2-1.363.6-.325.395-.444.905-.337 1.45l2.01 9.927c.21 1.057 1.258 1.822 2.336 1.822h15.312c1.082 0 2.105-.78 2.28-1.85L24.12 9.08c.09-.542-.047-1.07-.383-1.465-.334-.396-.824-.587-1.377-.587h-6.402L14.095.5M8.062 7.028h7.713M8.437 12.305v4.87M12.324 12.305v4.87M16.18 12.305v4.87"/>
  </g>
</svg>
