<svg xmlns="http://www.w3.org/2000/svg" width="18.896" height="18.895" viewBox="0 0 18.896 18.895">
  <path fill="#FFF" d="M9.447 0C4.23 0 0 4.228 0 9.444c0 5.22 4.23 9.452 9.448 9.45 5.22 0 9.448-4.23 9.448-9.45 0-5.216-4.23-9.444-9.45-9.444zm.387 14.022c-.113.116-.262.175-.45.175s-.338-.06-.454-.175c-.117-.117-.176-.27-.176-.457s.06-.337.176-.454c.116-.116.268-.174.455-.174s.336.058.45.175c.11.118.167.27.167.455 0 .188-.057.34-.168.457zM9.75 9.896v1.653h-.715V9.516c.98-.225 1.675-.517 2.08-.876.407-.358.61-.854.61-1.49 0-.56-.197-1-.59-1.325-.39-.322-.927-.482-1.61-.482-.73 0-1.3.18-1.716.54-.417.36-.667.87-.75 1.533l-.617-.336c.14-.747.475-1.33 1-1.75.528-.423 1.236-.632 2.123-.632.86 0 1.556.215 2.088.645.534.43.8 1.01.8 1.738 0 1.504-.9 2.444-2.704 2.816z"/>
</svg>
