<svg id="Layer_1" xmlns="http://www.w3.org/2000/svg" viewBox="3 -2.2 19.2 19.2">
  <style>
    .st0{fill:#969696;}
  </style>
  <path class="st0" d="M22.2 1.4c-.7.3-1.4.5-2.2.6.8-.5 1.4-1.3 1.7-2.2-.8.5-1.6.8-2.5 1-.7-.8-1.7-1.2-2.9-1.2-2.2 0-3.9 1.8-3.9 3.9 0 .3 0 .6.1.9C9.2 4.3 6.3 2.7 4.3.3c-.3.6-.5 1.3-.5 2 0 1.4.7 2.6 1.8 3.3-.6 0-1.3-.2-1.8-.5C3.8 7 5.1 8.6 6.9 9c-.3.1-.7.1-1 .1-.3 0-.5 0-.7-.1.5 1.6 2 2.7 3.7 2.7-1.3 1.1-3.1 1.7-4.9 1.7-.3 0-.6 0-.9-.1 1.7 1.1 3.8 1.8 6 1.8 7.3 0 11.2-6 11.2-11.2v-.5c.7-.5 1.4-1.2 1.9-2z"/>
</svg>
